<?xml version="1.0" encoding="utf-8"?>
<!-- Generator: Adobe Illustrator 24.1.2, SVG Export Plug-In . SVG Version: 6.00 Build 0)  -->
<svg version="1.1" id="Layer_1" xmlns="http://www.w3.org/2000/svg" xmlns:xlink="http://www.w3.org/1999/xlink" x="0px" y="0px"
	 viewBox="0 0 1080 352" style="enable-background:new 0 0 1080 352;" xml:space="preserve">
<style type="text/css">
	.st0{fill:#6D6D6D;}
</style>
<path class="st0" d="M775.72,113.67c-2.74,14.23-5.48,28.46-8.21,42.69c-11.68,60.9-23.39,121.79-34.95,182.71
	c-0.7,3.68-1.96,4.84-5.8,4.82c-27.46-0.18-54.91-0.1-82.37-0.1c-1.34,0-2.69,0-4.89,0C661.95,232.06,684.3,120.8,706.72,9.21
	c46.1,0,92.12,0,138.71,0c1.36,59.78,2.71,119.49,4.07,179.2c0.31,0.13,0.62,0.27,0.93,0.4c0.79-1.45,1.64-2.88,2.37-4.36
	c27.77-56.81,55.56-113.61,83.19-170.48c1.92-3.96,4.12-5.28,8.58-5.26c43.08,0.21,86.16,0.12,129.24,0.12c1.79,0,3.59,0,6.19,0
	c-22.93,111.85-45.74,223.16-68.59,334.68c-30.63,0-61.04,0-92.05,0c16.52-76.82,32.98-153.32,49.43-229.81
	c-0.29-0.13-0.58-0.25-0.87-0.38c-0.73,1.48-1.5,2.95-2.19,4.45c-33.83,73.85-67.69,147.68-101.39,221.59
	c-1.59,3.48-3.44,4.53-7.12,4.5c-21.08-0.17-42.17-0.08-63.26-0.08c-1.63,0-3.27,0-5.35,0c-3.93-77.02-7.83-153.61-11.74-230.2
	C776.5,113.62,776.11,113.65,775.72,113.67z"/>
<path class="st0" d="M145.58,9.36c-3.71,18.64-7.4,37.16-11.08,55.68c-9.46,47.61-18.98,95.22-28.34,142.85
	c-2.08,10.58-2.94,21.28-1.3,32.06c2.54,16.73,13.85,27.03,31.14,28.22c26.34,1.82,43.94-9.59,55.44-35.9
	c7.03-16.08,10.12-33.22,13.55-50.27C216.34,125.68,227.66,69.33,239,13c0.24-1.18,0.59-2.33,0.96-3.82c32.79,0,65.61,0,99.05,0
	c-1.72,8.82-3.35,17.37-5.05,25.9C321,99.88,308.07,164.7,295.05,229.49c-5.23,26-14.66,50.18-31.68,70.98
	c-19.67,24.05-45.26,38.68-75.17,45.52c-39.91,9.13-79.84,8.84-118.87-4.47c-30.93-10.54-54.15-29.88-64.83-61.93
	c-5.56-16.69-5.59-33.63-2.19-50.67C16.75,156.7,31.25,84.49,45.67,12.27c0.45-2.24,1.13-3.47,3.73-3.46
	c31.4,0.08,62.8,0.06,94.2,0.09C144.17,8.9,144.75,9.16,145.58,9.36z"/>
<path class="st0" d="M427.48,231.55c1.01,6.73,1.54,13.09,2.98,19.23c3.55,15.09,12.65,24.54,28.62,26.15
	c11.49,1.16,23,1.86,34.31-1.47c8-2.36,15.19-6.09,20.67-12.55c10.43-12.29,8.39-28.95-5.49-37.03
	c-8.28-4.82-17.57-8.05-26.65-11.31c-20.06-7.22-40.54-13.37-60.36-21.17c-15.95-6.28-29.82-16.18-40.25-30.18
	c-13.15-17.66-17.02-37.86-15.53-59.29c3.02-43.42,26.98-72.26,65.67-88.79c46.4-19.83,94-19.92,140.8-1.26
	c35.47,14.14,53.44,42.14,56.87,79.75c0.43,4.67,0.47,9.37,0.67,14.06c0.02,0.58-0.14,1.16-0.25,2.03c-30.36,0-60.6,0-91.17,0
	c-0.09-1.51-0.19-2.97-0.28-4.43c-0.92-14.85-9.14-25.04-23.58-28.54c-11.53-2.8-23.16-2.75-34.62,0.52
	c-3.16,0.9-6.22,2.37-9.12,3.95c-12.48,6.83-18.27,29.21,0.86,38.63c7.95,3.91,16.51,6.82,25.07,9.17
	c18.38,5.04,37.33,8.28,54.65,16.61c8.84,4.25,17.65,8.84,25.7,14.4c28.49,19.65,39.59,47.61,36.96,81.37
	c-3.77,48.39-31.47,79.17-74.73,96.72c-46.61,18.91-94.24,19.26-141.01,0.65c-46.18-18.38-67.2-55.76-66.4-103.02
	c0.02-1.32,0.27-2.64,0.44-4.22C364.2,231.55,395.84,231.55,427.48,231.55z"/>
</svg>
