<svg width="157" height="50" viewBox="0 0 157 50" fill="none" xmlns="http://www.w3.org/2000/svg">
<path d="M26.7714 14.4449C31.5963 14.4449 32.9717 13.8913 32.9717 12.7258V12.6384C32.9717 11.5312 32.0721 11.0504 26.8903 11.0504C18.482 11.0504 16.1847 9.41871 16.1847 5.84208V5.65268C16.1773 2.14161 19.3518 0 27.1728 0C34.4957 0 37.9899 2.33829 37.9899 5.94406V6.07518H33.3062V6.00962C33.3062 4.74942 31.6409 3.8243 27.381 3.8243C22.7568 3.8243 21.6342 4.42162 21.6342 5.36859V5.43415C21.6342 6.42483 22.3776 6.86917 27.9237 6.86917C35.7893 6.86917 38.5623 8.52273 38.5623 12.347V12.5C38.5623 16.3243 35.0905 18.2182 27.2026 18.2182C19.6715 18.2182 16.0658 16.2952 16.0658 11.9682V11.7716H20.7569V11.8371C20.7495 13.6291 22.4445 14.4449 26.7714 14.4449Z" fill="#1B23EC"/>
<path d="M52.5167 4.70582V18.1091H47.1565V4.70582H39.9154V0.109375H59.7281V4.70582H52.5167Z" fill="#1B23EC"/>
<path d="M82.9532 0.109375V7.10967C82.9532 15.1298 80.0686 18.2183 72.2699 18.2183C64.5158 18.2183 61.5867 15.239 61.5867 7.10967V0.109375H66.932V7.17523C66.932 11.8591 68.5304 13.5563 72.2328 13.5563C75.8831 13.5563 77.6153 11.9246 77.6153 7.17523V0.109375H82.9532Z" fill="#1B23EC"/>
<path d="M85.4288 0.109375H95.7775C104.32 0.109375 107.427 3.3145 107.427 8.87977V9.45524C107.427 14.9768 104.32 18.1091 95.7775 18.1091H85.4288V0.109375ZM90.7667 4.64026V13.6292H95.8147C99.8516 13.6292 102.037 12.5948 102.037 9.32412V9.10559C102.037 5.70378 99.8516 4.64755 95.8147 4.64755H90.7667V4.64026Z" fill="#1B23EC"/>
<path d="M115.085 0.109375H109.747V18.1091H115.085V0.109375Z" fill="#1B23EC"/>
<path d="M129.136 18.2182C120.839 18.2182 117.323 14.9694 117.323 9.40414V8.8141C117.323 3.24884 120.839 0 129.136 0C137.366 0 140.875 3.24884 140.875 8.8141V9.41142C140.875 14.9767 137.358 18.2182 129.136 18.2182ZM129.091 4.59645C124.586 4.59645 122.69 5.79108 122.69 9.05449V9.18561C122.69 12.4344 124.586 13.5999 129.091 13.5999C133.619 13.5999 135.492 12.4272 135.492 9.18561V9.05449C135.492 5.7838 133.619 4.59645 129.091 4.59645Z" fill="#1B23EC"/>
<path d="M0 25.9834H12.9359C23.6117 25.9834 27.4999 29.9825 27.4999 36.9464V37.6675C27.4999 44.5659 23.6117 48.4921 12.9359 48.4921H0V25.9834ZM6.67611 31.6434V42.8759H12.9879C18.0285 42.8759 20.7643 41.5793 20.7643 37.4927V37.2232C20.7643 32.9691 18.0285 31.6434 12.9879 31.6434H6.67611Z" fill="#1B23EC"/>
<path d="M45.2384 28.4673C45.9149 28.4673 46.3089 28.4964 46.7847 28.6057V34.8411C42.8148 34.0107 37.1497 34.5133 37.1497 38.0462V48.4848H30.4736V28.6057H37.1497V37.0556C37.1497 31.7817 39.3206 28.4673 45.2384 28.4673Z" fill="#1B23EC"/>
<path d="M56.1076 36.196H49.3199V36.0284C49.3199 31.1406 53.4609 28.46 60.9028 28.46C69.0434 28.46 72.6491 30.6963 72.6491 36.1596V48.4702H65.973V43.3055C65.973 45.8186 63.7724 48.6086 57.5796 48.6086C51.632 48.6086 48.3981 47.2027 48.3981 43.3929V43.1161C48.3981 37.0992 57.1632 37.4562 65.9805 36.1887V36.1086C65.9805 34.3385 64.7984 33.457 60.8284 33.457C57.3342 33.457 56.1224 34.3385 56.1224 36.0503V36.196H56.1076ZM58.9847 44.9737C62.6201 44.9737 65.973 44.5876 65.973 42.3804V40.2534C58.1149 41.0547 55.0667 41.4407 55.0667 43.0724V43.2108C55.0667 44.3399 56.0258 44.9737 58.9847 44.9737Z" fill="#1B23EC"/>
<path d="M101.301 28.6057V43.3201C101.301 47.7345 97.7477 49.9999 88.5067 49.9999C80.2768 49.9999 76.5596 48.208 76.5596 44.8936V44.5075H82.9012V44.6168C82.9012 46.3286 84.5888 46.7729 88.5662 46.7729C92.8187 46.7729 94.5955 46.0518 94.5955 43.7936V38.3813C94.5955 41.2514 92.3949 44.1214 86.1426 44.1214C78.7602 44.1214 75.66 41.4699 75.66 36.5602V36.1159C75.66 31.1479 78.7602 28.4673 86.1426 28.4673C92.3949 28.4673 94.5955 31.3665 94.5955 34.2074V28.6057H101.301ZM88.5364 32.7214C84.3955 32.7214 82.3659 33.6319 82.3659 36.2252V36.4728C82.3659 38.9859 84.284 39.8965 88.5364 39.8965C91.9191 39.8965 94.5955 39.3429 94.5955 37.4926V35.1179C94.5955 33.2458 91.9191 32.7214 88.5364 32.7214Z" fill="#1B23EC"/>
<path d="M129.731 38.4323V38.6509C129.731 44.8863 125.842 48.6159 116.966 48.6159C108.089 48.6159 104.201 44.8863 104.201 38.6509V38.4323C104.201 32.1896 108.089 28.4673 116.966 28.4673C125.842 28.4673 129.731 32.1969 129.731 38.4323ZM122.995 38.5999V38.4906C122.995 35.1252 121.136 33.967 116.966 33.967C112.795 33.967 110.936 35.1252 110.936 38.4906V38.5999C110.936 41.9652 112.795 43.1307 116.966 43.1307C121.136 43.1307 122.995 41.9652 122.995 38.5999Z" fill="#1B23EC"/>
<path d="M139.388 36.6112C139.388 31.6943 141.559 28.4673 147.7 28.4673C153.811 28.4673 157 31.1698 157 37.1648V48.4848H150.294V38.3231C150.294 35.6715 148.83 34.1782 144.882 34.1782C141.983 34.1782 139.388 34.9504 139.388 37.5728V48.4775H132.712V28.6057H139.388V36.6112Z" fill="#1B23EC"/>
</svg>
