<svg width="165" height="58" viewBox="0 0 165 58" fill="none" xmlns="http://www.w3.org/2000/svg">
<g clip-path="url(#clip0_49_2)" filter="url(#filter0_d_49_2)">
<path d="M30.7714 14.4449C35.5963 14.4449 36.9717 13.8913 36.9717 12.7258V12.6384C36.9717 11.5312 36.0721 11.0504 30.8903 11.0504C22.482 11.0504 20.1847 9.41871 20.1847 5.84208V5.65268C20.1773 2.14161 23.3518 0 31.1728 0C38.4957 0 41.9899 2.33829 41.9899 5.94406V6.07518H37.3062V6.00962C37.3062 4.74942 35.6409 3.8243 31.381 3.8243C26.7568 3.8243 25.6342 4.42162 25.6342 5.36859V5.43415C25.6342 6.42483 26.3776 6.86917 31.9237 6.86917C39.7893 6.86917 42.5623 8.52273 42.5623 12.347V12.5C42.5623 16.3243 39.0905 18.2182 31.2026 18.2182C23.6715 18.2182 20.0658 16.2952 20.0658 11.9682V11.7716H24.7569V11.8371C24.7495 13.6291 26.4445 14.4449 30.7714 14.4449Z" fill="white"/>
<path d="M56.5167 4.70571V18.109H51.1565V4.70571H43.9154V0.109268H63.7281V4.70571H56.5167Z" fill="white"/>
<path d="M86.9532 0.109268V7.10956C86.9532 15.1297 84.0686 18.2182 76.2699 18.2182C68.5158 18.2182 65.5867 15.2389 65.5867 7.10956V0.109268H70.932V7.17512C70.932 11.859 72.5304 13.5562 76.2328 13.5562C79.8831 13.5562 81.6153 11.9245 81.6153 7.17512V0.109268H86.9532Z" fill="white"/>
<path d="M89.4288 0.109268H99.7775C108.32 0.109268 111.427 3.3144 111.427 8.87966V9.45513C111.427 14.9767 108.32 18.109 99.7775 18.109H89.4288V0.109268ZM94.7667 4.64015V13.6291H99.8147C103.852 13.6291 106.037 12.5947 106.037 9.32401V9.10548C106.037 5.70367 103.852 4.64744 99.8147 4.64744H94.7667V4.64015Z" fill="white"/>
<path d="M119.085 0.109268H113.747V18.109H119.085V0.109268Z" fill="white"/>
<path d="M133.136 18.2182C124.839 18.2182 121.323 14.9694 121.323 9.40414V8.8141C121.323 3.24884 124.839 0 133.136 0C141.366 0 144.875 3.24884 144.875 8.8141V9.41142C144.875 14.9767 141.358 18.2182 133.136 18.2182ZM133.091 4.59645C128.586 4.59645 126.69 5.79108 126.69 9.05449V9.18561C126.69 12.4344 128.586 13.5999 133.091 13.5999C137.619 13.5999 139.492 12.4272 139.492 9.18561V9.05449C139.492 5.7838 137.619 4.59645 133.091 4.59645Z" fill="white"/>
<path d="M4 25.9834H16.9359C27.6117 25.9834 31.4999 29.9825 31.4999 36.9464V37.6675C31.4999 44.5659 27.6117 48.4921 16.9359 48.4921H4V25.9834ZM10.6761 31.6434V42.8759H16.9879C22.0285 42.8759 24.7643 41.5793 24.7643 37.4927V37.2232C24.7643 32.9691 22.0285 31.6434 16.9879 31.6434H10.6761Z" fill="white"/>
<path d="M49.2384 28.4674C49.9149 28.4674 50.3089 28.4965 50.7847 28.6058V34.8412C46.8148 34.0108 41.1497 34.5134 41.1497 38.0463V48.4848H34.4736V28.6058H41.1497V37.0557C41.1497 31.7818 43.3206 28.4674 49.2384 28.4674Z" fill="white"/>
<path d="M60.1076 36.1961H53.3199V36.0286C53.3199 31.1407 57.4609 28.4601 64.9028 28.4601C73.0434 28.4601 76.6491 30.6964 76.6491 36.1597V48.4703H69.973V43.3057C69.973 45.8188 67.7724 48.6087 61.5796 48.6087C55.632 48.6087 52.3981 47.2028 52.3981 43.3931V43.1163C52.3981 37.0994 61.1632 37.4563 69.9805 36.1888V36.1087C69.9805 34.3386 68.7984 33.4572 64.8284 33.4572C61.3342 33.4572 60.1224 34.3386 60.1224 36.0504V36.1961H60.1076ZM62.9847 44.9738C66.6201 44.9738 69.973 44.5877 69.973 42.3805V40.2535C62.1149 41.0548 59.0667 41.4409 59.0667 43.0726V43.211C59.0667 44.34 60.0258 44.9738 62.9847 44.9738Z" fill="white"/>
<path d="M105.301 28.6058V43.3202C105.301 47.7346 101.748 50 92.5067 50C84.2768 50 80.5596 48.208 80.5596 44.8937V44.5076H86.9012V44.6168C86.9012 46.3287 88.5888 46.773 92.5662 46.773C96.8187 46.773 98.5955 46.0519 98.5955 43.7937V38.3814C98.5955 41.2515 96.3949 44.1215 90.1426 44.1215C82.7602 44.1215 79.66 41.47 79.66 36.5603V36.116C79.66 31.148 82.7602 28.4674 90.1426 28.4674C96.3949 28.4674 98.5955 31.3666 98.5955 34.2075V28.6058H105.301ZM92.5364 32.7214C88.3955 32.7214 86.3659 33.632 86.3659 36.2252V36.4729C86.3659 38.986 88.284 39.8966 92.5364 39.8966C95.9191 39.8966 98.5955 39.343 98.5955 37.4927V35.118C98.5955 33.2459 95.9191 32.7214 92.5364 32.7214Z" fill="white"/>
<path d="M133.731 38.4324V38.6509C133.731 44.8864 129.842 48.616 120.966 48.616C112.089 48.616 108.201 44.8864 108.201 38.6509V38.4324C108.201 32.1897 112.089 28.4674 120.966 28.4674C129.842 28.4674 133.731 32.197 133.731 38.4324ZM126.995 38.5999V38.4907C126.995 35.1253 125.136 33.9671 120.966 33.9671C116.795 33.9671 114.936 35.1253 114.936 38.4907V38.5999C114.936 41.9653 116.795 43.1308 120.966 43.1308C125.136 43.1308 126.995 41.9653 126.995 38.5999Z" fill="white"/>
<path d="M143.388 36.6113C143.388 31.6943 145.559 28.4674 151.7 28.4674C157.811 28.4674 161 31.1699 161 37.1649V48.4848H154.294V38.3231C154.294 35.6716 152.83 34.1783 148.882 34.1783C145.983 34.1783 143.388 34.9505 143.388 37.5728V48.4776H136.712V28.6058H143.388V36.6113Z" fill="white"/>
</g>
<defs>
<filter id="filter0_d_49_2" x="0" y="0" width="165" height="58" filterUnits="userSpaceOnUse" color-interpolation-filters="sRGB">
<feFlood flood-opacity="0" result="BackgroundImageFix"/>
<feColorMatrix in="SourceAlpha" type="matrix" values="0 0 0 0 0 0 0 0 0 0 0 0 0 0 0 0 0 0 127 0" result="hardAlpha"/>
<feOffset dy="4"/>
<feGaussianBlur stdDeviation="2"/>
<feComposite in2="hardAlpha" operator="out"/>
<feColorMatrix type="matrix" values="0 0 0 0 0 0 0 0 0 0 0 0 0 0 0 0 0 0 0.25 0"/>
<feBlend mode="normal" in2="BackgroundImageFix" result="effect1_dropShadow_49_2"/>
<feBlend mode="normal" in="SourceGraphic" in2="effect1_dropShadow_49_2" result="shape"/>
</filter>
<clipPath id="clip0_49_2">
<rect width="157" height="50" fill="white" transform="translate(4)"/>
</clipPath>
</defs>
</svg>
