<?xml version="1.0" encoding="utf-8"?>
<!-- Generator: Adobe Illustrator 24.1.2, SVG Export Plug-In . SVG Version: 6.00 Build 0)  -->
<svg version="1.1" id="Layer_1" xmlns="http://www.w3.org/2000/svg" xmlns:xlink="http://www.w3.org/1999/xlink" x="0px" y="0px"
	 viewBox="0 0 1080 185.91" style="enable-background:new 0 0 1080 185.91;" xml:space="preserve">
<g>
	<path d="M453.54,0c0,4.19,0,6.91,0,9.62c0,49.91,0.14,99.82-0.17,149.72c-0.04,6.61,2.34,10.04,7.88,12.89
		c22.25,11.43,43.15,4.25,52.86-18.86c7.21-17.14,7.42-34.71,0.85-52.06c-7.65-20.19-25.93-28.51-46.4-21.84
		c-1.58,0.52-3.61-0.35-5.43-0.57c0.85-1.62,1.31-3.72,2.61-4.8c22.66-18.8,57.47-8.62,66.91,20.37
		c8.71,26.75,5.28,51.99-16.01,72.16c-21.53,20.4-46.82,22.88-74.11,13.2c-4.98-1.77-6.48-4.43-6.46-9.63
		c0.2-48.29-0.01-96.58,0.27-144.87c0.04-6.16-1.39-9.6-7.76-10.29c-1.8-0.2-3.66-0.82-5.24-1.69c-1.03-0.57-2.2-1.92-2.23-2.96
		c-0.03-1.01,1.12-2.74,2.06-2.98C432.93,4.9,442.72,2.61,453.54,0z"/>
	<path d="M116.38,100.16c-2.77,0.49-4,1.08-4.99,0.81c-4.22-1.15-9.57-1.38-12.25-4.14c-3.94-4.07-0.69-9.13,2.16-13.16
		c11.76-16.6,44.68-24.15,62.41-14.37c9.64,5.32,12.81,14.42,13,24.48c0.42,22.4,0.23,44.8,0.28,67.21
		c0.03,12.66,1.03,13.67,13.79,13.87c2.17,0.03,4.34,0.3,8.32,0.59c-2.38,2.16-3.25,3.57-4.46,3.95
		c-5.29,1.64-10.59,3.42-16.02,4.32c-11.1,1.82-18.54-4.38-18.78-15.66c-0.27-12.93-0.08-25.87-0.08-38.8c0-2.27,0-4.53,0-9.13
		c-14,5.6-27.11,9.83-39.19,16.04c-8.03,4.13-9.63,14-6.19,22.7c3.49,8.82,11.93,13.87,22.32,12.74c4.41-0.48,8.71-2.06,13.37-3.22
		c-3.72,9.28-16.9,16.74-28.34,16.48c-11.84-0.27-22.34-7.36-25.92-17.5c-3.97-11.23-1.61-23.82,7.53-30.12
		c7.27-5.01,15.78-8.53,24.15-11.56c8.87-3.21,18.2-5.18,27.38-7.46c3.42-0.85,5.35-2.28,4.9-6.09c-0.9-7.76-0.55-15.88-2.74-23.25
		c-4.83-16.28-23.49-22.58-37.64-13.29c-1.56,1.02-2.77,3.64-2.88,5.6C116.15,87.37,116.38,93.59,116.38,100.16z"/>
	<path d="M1068.81,98.48c-2.13-4.49-4.4-8.92-6.36-13.49c-4.92-11.44-12.08-15.68-24.39-14.32c-7.46,0.82-13.43,4.05-16.06,11.3
		c-2.76,7.62-2.4,15.54,3.74,21.27c4.78,4.46,10.79,7.75,16.58,10.96c6.45,3.57,13.42,6.18,19.92,9.67
		c25.04,13.46,22.47,42.22-0.63,55.02c-17.67,9.79-35.42,8.99-52.98-0.16c-1.76-0.92-3.36-3.82-3.48-5.89
		c-0.41-7.6-0.28-15.24-0.07-22.86c0.04-1.48,1.35-2.93,2.08-4.4c1.38,1.25,3.39,2.24,4.01,3.79c2.4,6,3.93,12.36,6.63,18.2
		c1.53,3.3,4.17,6.7,7.23,8.57c7.7,4.69,16.35,4.97,24.77,2.18c14.23-4.72,18.87-22.56,8.15-33.09c-5.3-5.21-12.28-8.84-18.84-12.58
		c-6.8-3.88-14.42-6.39-20.96-10.62c-18.3-11.82-18.88-35.24-1.34-48.23c16.36-12.12,33.91-11.72,51.8-3.73
		c1.4,0.63,3.09,2.54,3.14,3.92c0.3,7.74,0.15,15.49,0.15,23.24C1070.88,97.65,1069.85,98.06,1068.81,98.48z"/>
	<path d="M0,76.02c1.54-1.89,2.81-5.1,4.65-5.47c12.88-2.58,18.36-11.68,21.76-23.04c0.79-2.63,1.86-5.3,3.4-7.53
		c0.85-1.23,3.06-2.33,4.44-2.1c1.06,0.17,2.49,2.47,2.53,3.86c0.24,8.27,0.12,16.56,0.12,26c10.44,0,20.27,0.08,30.11-0.04
		c3.54-0.04,5.62,0.68,5.57,4.91c-0.05,3.86-1.35,5.35-5.26,5.27C59.02,77.7,50.7,78,42.4,77.78c-4.24-0.11-5.58,1.47-5.55,5.64
		c0.16,23.08-0.15,46.16,0.18,69.23c0.23,16.11,5.67,20.75,21.9,20.05c4.44-0.19,8.88-0.39,13.59,0.55
		c-7.87,6.82-17.07,10.34-27.05,11.3c-17.26,1.65-25.62-6.02-25.73-23.39c-0.16-25.15-0.29-50.31,0.12-75.46
		c0.11-6.64-2.11-8.62-8.27-7.94c-3.38,0.37-6.84,0.07-10.26,0.07C0.89,77.23,0.44,76.63,0,76.02z"/>
	<path d="M328.37,82.45c9.07-9.97,19.25-16.41,32.17-17.33c22.7-1.61,33.68,8.88,33.74,31.65c0.06,22.17,0.21,44.35-0.12,66.52
		c-0.08,5.5,1.26,8.33,6.82,9.81c3.29,0.88,6.03,3.79,9.02,5.78c-3.58,0.73-7.14,2-10.73,2.1c-10.15,0.29-20.33,0.19-30.48,0
		c-1.78-0.03-3.53-1.28-5.29-1.97c1.33-1.54,2.49-4.19,4.03-4.43c9.54-1.49,10.72-7.41,10.4-15.77c-0.75-19.14,0.48-38.4-1.1-57.44
		c-1.72-20.67-15.71-28.36-35.42-21.3c-3.43,1.23-6.78,2.7-10.19,3.99C330.93,84.16,330.43,83.64,328.37,82.45z"/>
	<path d="M319.89,170.44c4.53,1.64,8.72,2.95,12.7,4.73c1.37,0.62,2.22,2.42,3.3,3.68c-1.25,0.73-2.48,2.09-3.74,2.11
		c-13.15,0.15-26.3,0.15-39.44-0.03c-1.2-0.02-2.39-1.5-3.58-2.3c0.83-1.21,1.53-3.36,2.49-3.48c13.14-1.63,11.88-10.98,11.64-20.36
		c-0.36-14.29-0.09-28.6-0.1-42.91c0-1.85,0.03-3.69-0.04-5.54c-0.88-25.16-16.76-35.07-39.85-24.96c-2.5,1.1-5.32,1.47-8,2.17
		c1.81-2.58,3.15-5.72,5.49-7.63c11.75-9.57,25.03-13.44,40.08-9.57c9.66,2.48,15.77,8.5,17.47,18.37
		c0.93,5.42,1.46,10.98,1.49,16.48C319.98,124.25,319.89,147.3,319.89,170.44z"/>
	<path d="M586.13,66.06c0,14.16-0.07,27.25,0.02,40.35c0.09,13.38-0.64,26.85,0.71,40.1c2.23,21.8,18.98,31.17,39.49,23.16
		c1.5-0.59,2.91-1.52,4.45-1.87c0.9-0.2,2.4,0.13,2.86,0.77c0.42,0.58,0.15,2.36-0.44,2.85c-11.84,9.77-25.02,16.1-40.77,12.81
		c-13.84-2.89-20.62-13.08-21.91-26.22c-1.36-13.96-1.16-28.08-1.41-42.14c-0.17-9.69-0.22-19.4,0.22-29.08
		c0.23-5.05-1.27-7.85-6.36-8.61c-1.81-0.27-3.76-0.66-5.26-1.61c-2.03-1.28-3.7-3.15-5.52-4.77c1.96-1.08,3.83-2.87,5.89-3.12
		C567,67.6,575.95,66.97,586.13,66.06z"/>
	<path d="M988.13,181c-16.4,0-30.87,0.03-45.33-0.08c-0.88-0.01-2.39-1.07-2.47-1.78c-0.14-1.15,0.53-2.49,1.13-3.59
		c0.26-0.48,1.18-0.76,1.84-0.85c10.68-1.37,11.4-8.41,11.02-17.34c-0.65-14.97-0.15-29.99-0.2-44.99
		c-0.01-3.46-0.14-6.93-0.5-10.36c-2.16-20.61-15.44-29.02-35.08-22.16c-3.88,1.35-7.6,3.15-12.98,5.4c0.81-2.73,0.8-4.65,1.74-5.54
		c12.47-11.79,26.85-17.84,44.2-13.43c11.29,2.87,17.44,10.26,18.52,23.04c0.77,9.17,0.5,18.44,0.54,27.66
		c0.07,15,0.31,30.01-0.12,44.99c-0.18,6.17,0.97,10.25,7.76,11.22c2.01,0.29,4.14,1.01,5.8,2.14
		C985.34,176.26,986.07,178.08,988.13,181z"/>
	<path d="M730.38,65.6c0,3.42,0,5.91,0,8.39c0,29.34,0.26,58.69-0.19,88.02c-0.11,7.03,2.02,10.02,8.83,10.62
		c3.4,0.3,6.78,1.46,10.02,2.63c1.21,0.44,2.02,2,3.02,3.05c-1.3,0.92-2.59,2.61-3.89,2.63c-15.25,0.19-30.5,0.19-45.74,0
		c-1.37-0.02-2.72-1.63-4.08-2.5c1.1-1.24,2.1-3.42,3.33-3.56c12.13-1.39,12.56-9.37,12.3-19.14c-0.57-21.24-0.39-42.51-0.04-63.76
		c0.1-5.92-1.4-8.84-7.57-9.51c-3.13-0.34-6.09-2.35-9.12-3.6c2.88-1.78,5.56-4.07,8.67-5.22C713.65,70.79,721.58,68.45,730.38,65.6
		z"/>
	<path d="M829.77,65.62c0,35.2,0,69.71,0,104.65c5.22,1.62,10.08,2.9,14.73,4.71c1.51,0.59,2.48,2.57,3.7,3.92
		c-1.48,0.73-2.95,2.07-4.43,2.08c-14.07,0.16-28.14,0.16-42.21,0c-1.49-0.02-2.96-1.39-4.44-2.14c1.21-1.38,2.15-3.39,3.67-4.04
		c12.58-5.37,12.62-5.3,12.62-19.21c0-21.68-0.2-43.36,0.13-65.04c0.09-5.72-1.27-9.24-7.17-10.36c-1.78-0.34-3.67-0.98-5.1-2.04
		c-1.1-0.81-2.21-2.56-2.09-3.77c0.11-1.13,1.69-2.77,2.88-3.04C811.01,69.32,820.03,67.59,829.77,65.62z"/>
	<path d="M896.31,65.39c0,3.76,0,6.24,0,8.72c0,29.32,0.18,58.64-0.14,87.96c-0.07,6.2,1.13,9.81,7.79,11.18
		c3.07,0.63,5.67,3.52,8.49,5.39c-3.26,0.81-6.5,2.24-9.78,2.33c-10.84,0.3-21.7,0.25-32.55-0.01c-2.04-0.05-4.05-1.64-6.07-2.52
		c1.52-1.41,2.81-3.41,4.61-4.15c10.78-4.38,10.82-4.29,10.82-15.79c0-22.16-0.22-44.33,0.15-66.49c0.1-5.96-1.55-8.84-7.55-9.76
		c-3.15-0.49-6.06-2.49-9.07-3.82c2.95-1.73,5.72-3.95,8.88-5.11C879.41,70.59,887.14,68.33,896.31,65.39z"/>
	<path d="M211.93,74.26c10.83-2.77,21.65-5.54,33.6-8.6c0,3.4,0,5.86,0,8.31c0,29.77,0.15,59.55-0.13,89.32
		c-0.05,5.54,1.35,8.32,6.96,9.69c3.31,0.81,6.13,3.65,9.17,5.58c-3.44,0.84-6.86,2.31-10.33,2.41c-11.07,0.31-22.16,0.21-33.23,0
		c-1.67-0.03-3.31-1.51-4.96-2.32c1.27-1.36,2.28-3.29,3.84-3.98c11.51-5.07,11.54-4.99,11.54-17.43c0-22.16-0.25-44.32,0.15-66.47
		c0.12-6.48-1.41-9.95-8.27-10.6c-3.05-0.29-5.97-1.99-8.95-3.05C211.53,76.17,211.73,75.21,211.93,74.26z"/>
	<path d="M659.68,66.77c0,3.13,0,5.14,0,7.16c-0.06,29.55,0.05,59.1-0.34,88.64c-0.08,6.08,1.81,8.88,7.74,9.54
		c3.18,0.36,6.36,1.26,9.37,2.36c1.21,0.44,2.39,1.95,2.77,3.22c0.18,0.59-1.46,2.41-2.46,2.57c-8.65,1.42-17.33,2.75-26.05,3.64
		c-1.13,0.12-3.41-2.28-3.66-3.77c-1.74-10.41-4.03-20.85-4.36-31.33c-0.63-20.52-0.28-41.09,0.1-61.63
		c0.1-5.58-1.93-7.96-7.15-8.67c-3.41-0.47-6.86-1.19-10.07-2.39c-1.25-0.47-2.38-2.47-2.62-3.92c-0.11-0.66,2.01-2.35,3.23-2.48
		C636.94,68.63,647.73,67.79,659.68,66.77z"/>
	<path d="M740.4,91.59c0-1.13-0.5-2.71,0.08-3.42c5.51-6.77,10.67-13.97,17-19.89c6.09-5.7,14.19-5.12,17.93-0.21
		c3.63,4.75,1.98,15.31-3.31,19.68c-1,0.83-2.87,0.94-4.29,0.82c-1.57-0.14-3.18-0.73-4.59-1.48c-7.04-3.72-13.43-4.18-18.61,3.13
		c-0.49,0.7-1.44,1.12-2.25,1.52C742.03,91.91,741.5,91.69,740.4,91.59z"/>
	<path d="M820,0.72c7.4-0.02,12.66,4.99,12.8,12.2c0.14,7.14-5.92,13.42-12.92,13.36c-6.94-0.06-12.55-5.71-12.69-12.78
		C807.03,5.67,811.96,0.75,820,0.72z"/>
</g>
</svg>
