<?xml version="1.0" encoding="utf-8"?>
<!-- Generator: Adobe Illustrator 24.1.2, SVG Export Plug-In . SVG Version: 6.00 Build 0)  -->
<svg version="1.1" id="Layer_1" xmlns="http://www.w3.org/2000/svg" xmlns:xlink="http://www.w3.org/1999/xlink" x="0px" y="0px"
	 viewBox="0 0 895.53 1080" style="enable-background:new 0 0 895.53 1080;" xml:space="preserve">
<g>
	<path d="M636.96,395.75c32.1,0,64.19,0,98.36,0c-2.12,3.16-3.12,5.32-4.74,6.82c-0.97,0.91-2.9,0.74-4.38,1.15
		c-21.4,5.85-26.18,12.05-26.21,34.59c-0.06,47.27,0.18,94.53-0.07,141.8c-0.29,54.86-32.13,95.58-84.09,107.16
		c-26.93,6-53.87,4.16-79.75-5.22c-37.88-13.74-54.95-43.82-58.68-81.77c-2.43-24.65-1.81-49.62-2.04-74.46
		c-0.3-31.3-0.03-62.61-0.09-93.92c-0.03-15.54-3.8-21.63-18.74-25.11c-13.04-3.04-26.54-4.44-39.93-5.57
		c-18.01-1.53-30.72-9.87-37.17-26.78c-8.73-22.9-17.27-45.88-25.38-69c-2.14-6.11-4.83-8.64-11.62-8.57
		c-33.14,0.35-66.3,0.32-99.44,0.02c-6.26-0.06-9.15,2.04-11.31,7.85c-6.09,16.36-12.99,32.43-19.36,48.69
		c-6.07,15.52-2.14,27.91,13.25,34.05c11.12,4.43,23.58,6.93,35.57,7.43c27.22,1.13,54.66-1.12,81.74,1.16
		c17.95,1.51,36.55,6.05,52.9,13.52c41.92,19.14,37.4,80.09,5.31,99.25c-12.08,7.21-26.39,10.79-39.87,15.51
		c-4.74,1.66-10.02,1.76-15.19,4.37c7.63,1.03,15.3,1.86,22.89,3.15c17.76,3,34.61,8.52,48.49,20.49
		c36.65,31.61,27.96,92.92-16.4,116.47c-28.93,15.36-60.34,17.17-92.14,16.62c-29.13-0.5-58.26-1.1-87.39-1.61
		c-1.45-0.03-2.9,0.41-4.35,0.63c9.25,64.45-12.32,90.52-79.54,96.69c-0.11,0.58-0.51,1.32-0.29,1.72
		c22.18,40.15,46.52,78.75,81.36,109.43c16.42,14.46,35.27,24.27,57.71,26.39c2.13,7.52-3.64,7.82-7.61,8.33
		c-19.25,2.49-37.91-0.47-55.92-7.44c-26.91-10.41-48.36-28.48-64.44-51.69c-19.69-28.42-37.05-58.46-55.36-87.82
		c-0.43-0.69-0.3-1.74-0.38-2.26c16.41-3,32.93-4.93,48.84-9.18c27.95-7.46,37.61-20.5,40.35-50.82
		c2.31-25.52-9.44-47.77-31.67-58.4c-23.31-11.15-48.27-12.31-74.58-11.42c0,4.2,0,7.78,0,11.36c0,73.66,0,147.33,0,220.99
		c0,24.46,4.13,29.46,28.11,35.22c3.13,0.75,5.8,3.39,8.68,5.16c-0.46,0.95-0.92,1.91-1.38,2.86c-34.85,0-69.7,0-107.87,0
		c3.39-3.85,5.02-6.75,7.5-8.2c2.52-1.47,5.9-1.39,8.85-2.2c17.57-4.83,22-10.53,22.01-28.69c0.04-68.44,0.02-136.89,0.01-205.33
		c0-20.02-6.28-27.67-25.8-31.49c-3.9-0.76-7.82-1.44-11.75-2.15c-2.64-7.08-0.8-10.3,7.17-10.28c37.44,0.09,74.88-0.65,112.31,0
		c20.33,0.35,40.51,4.18,58.33,14.56c9.35,5.45,18.1,12.66,25.38,20.65c4.54,4.97,8.33,6.21,14.04,4.78
		c3.85-0.97,7.74-1.86,11.52-3.05c15.57-4.91,19.67-10.44,19.68-26.65c0.02-70.59,0.02-141.19,0-211.78
		c0-15.77-4.45-22.49-19.67-26.85c-8.15-2.34-16.83-3.55-25.32-3.8c-18.38-0.56-36.79-0.17-58.19-0.17
		c2.65-4.18,3.73-8.15,6.15-9.33c14.45-7.02,23.13-18.93,29.04-33.14c29.43-70.68,58.8-141.39,87.96-212.19
		c6.9-16.76,1.4-25.82-17.07-30.97c-4.48-1.25-8.54-4.03-12.79-6.11c4.51-1.72,8.89-4.07,13.56-5.04c15-3.1,30.13-5.52,45.14-8.56
		c6.25-1.27,9.65-0.3,12.24,6.55c30.3,80.21,60.99,160.27,91.63,240.35c2.3,6,4.86,11.91,7.55,17.74
		c10.44,22.6,27.42,34.08,53.08,33.23c26.35-0.87,52.75-0.19,81.01,1.76c-1.67,1.86-3.01,4.39-5.09,5.42
		c-2.66,1.32-5.94,1.3-8.9,2.07c-18.66,4.86-23.45,11.22-23.43,30.57c0.05,46.35-0.04,92.69,0.08,139.04
		c0.05,18.55,2.63,36.7,10.51,53.73c11.25,24.33,30.68,38.69,56.91,40.95c16.19,1.4,33.32,0.31,49.08-3.55
		c25.98-6.36,40.17-26.19,46.19-51.24c3.34-13.89,5.32-28.42,5.54-42.7c0.69-45.11,0.26-90.23,0.25-135.35
		c0-16.92-5.46-24.41-21.8-29.36c-4.97-1.51-10.26-2-15.18-3.63c-2.3-0.76-4.07-3.12-6.08-4.75
		C635.53,397.53,636.25,396.64,636.96,395.75z M286.49,406.9c0,5.01,0,8.66,0,12.3c0,73.34,0.32,146.67-0.28,220
		c-0.11,13.77,5.92,22.32,17.36,25.93c12.05,3.81,25.07,6.33,37.65,6.28c25.84-0.12,48.18-17.01,56.4-40.1
		c9.13-25.66,2.66-56.59-15.99-72.99c-17.15-15.08-38.54-17.8-60.21-18.73c-12.02-0.52-16.92-4.79-18.63-18.21
		c3.66-0.2,7.41,0.12,10.92-0.67c15.75-3.54,32.08-5.72,46.97-11.53c19.95-7.79,28.81-24.26,28.48-45.98
		c-0.33-21.38-10.11-36.36-29.13-45.04C337.17,407.73,312.68,407.08,286.49,406.9z M343.88,278.17
		c-16.19-43.49-31.84-85.53-47.49-127.57c-0.75,0.08-1.49,0.17-2.24,0.25c-17.03,42.25-34.06,84.5-51.32,127.32
		C276.96,278.17,309.38,278.17,343.88,278.17z"/>
	<path d="M458.42,37.32c0,3.2,0,6.39,0,9.59c0,66.61,0,133.22-0.01,199.83c0,21.11,5.03,27.6,25.6,32.78
		c3.86,0.97,7.94,1.23,11.64,2.58c2.05,0.75,3.53,3.08,5.27,4.7c-1.93,0.94-3.85,2.65-5.8,2.69c-11.97,0.27-23.94,0.16-35.91,0.16
		c-17.8,0.01-35.61,0.14-53.41-0.17c-2.31-0.04-4.59-2.39-6.88-3.67c2.12-1.58,4.03-3.66,6.4-4.62c3.66-1.48,7.69-2.03,11.46-3.27
		c15.48-5.1,19.46-10.7,19.51-26.82c0.19-57.39,0.38-114.79,0.63-172.18c0.05-11.96,0.5-23.91,0.56-35.87
		c0.08-16.99-4.77-23.78-20.84-29.2c-4.05-1.37-8.44-1.78-12.37-3.39c-2.28-0.93-3.96-3.35-5.91-5.09c2.36-1.21,4.68-3.38,7.08-3.47
		c10.42-0.39,20.87-0.13,31.3-0.18c12.58-0.06,25.19,0.2,37.74-0.47c6.32-0.33,9.05,2,11.5,7.58
		C515.9,77,546.09,145.06,576.22,213.13c1.35,3.04,2.81,6.03,4.93,10.56c8.76-21.19,16.93-40.88,25.06-60.59
		c21.03-50.97,42.14-101.91,62.93-152.97c2.54-6.23,5.56-8.74,12.67-8.58c23.58,0.55,47.17,0.21,70.76,0.21
		c0.54,0.86,1.08,1.71,1.62,2.57c-2.06,1.9-3.86,5.02-6.21,5.5c-33.4,6.94-32.38,16.56-32.37,43.33
		c0.04,63.23,0.04,126.46,0.03,189.7c0,27.43,4.26,32.63,31.1,38.81c2.68,0.62,4.89,3.32,7.32,5.06c-0.52,0.83-1.03,1.66-1.55,2.5
		c-34.28,0-68.57,0-102.85,0c-0.7-0.6-1.4-1.21-2.1-1.81c1.9-2.1,3.44-5.45,5.76-6.12c27.88-8.07,29.14-9.59,29.15-38.86
		c0.01-67.22,0.02-134.44,0.04-201.67c0-3.93,0-7.85-2.13-12.57c-1.17,2.45-2.44,4.85-3.5,7.35
		c-32.74,76.97-65.44,153.95-98.29,230.88c-1.31,3.08-4,5.57-6.04,8.34c-2.38-2.82-5.55-5.28-7.04-8.51
		c-33.87-73.79-67.56-147.66-101.3-221.51c-1.2-2.62-2.6-5.14-3.91-7.71C459.68,37.13,459.05,37.22,458.42,37.32z"/>
	<path d="M668.96,1080c-5.53-3.72-9.62-5.32-12.06-8.28c-52.7-63.87-105.22-127.89-157.78-191.87
		c-9.66-11.75-19.38-23.46-30.9-37.41c0,5.31,0,7.89,0,10.46c0,59.22-0.01,118.44-0.01,177.65c0,19.56,5.07,26.26,23.98,31.34
		c4.43,1.19,9.12,1.47,13.45,2.91c2.08,0.69,3.59,3.1,5.36,4.73c-1.94,0.95-3.88,2.71-5.83,2.72c-31.58,0.17-63.16,0.12-96.89-1.96
		c1.91-2.1,3.48-5.48,5.78-6.09c32.11-8.48,33.32-9.92,33.32-43.18c0-62.9,0.01-125.8,0-188.7c0-26.3-5.75-33.48-31.64-38.59
		c-4.95-0.98-8.51-1.78-5.95-9.17c18.72,0,37.92-0.23,57.09,0.28c2.52,0.07,5.34,3.59,7.36,6.05
		c55.41,67.6,110.72,135.28,166.07,202.93c1.91,2.34,4,4.53,7.29,8.24c0.24-4.54,0.53-7.4,0.53-10.25
		c0.02-54.92,0.01-109.84-0.02-164.77c-0.01-20.6-5.03-27-25.19-32.2c-4.44-1.15-9.1-1.66-13.35-3.27c-2.03-0.77-3.34-3.42-6.49-6.9
		c36.23,0,69.57,0,102.93,0c1.44,7.01,1.44,7.04-4.37,8.43c-1.49,0.36-3.04,0.41-4.53,0.75c-23.52,5.42-28.13,11.19-28.13,35.18
		c0,79.16,0,158.32,0,237.49C668.96,1069.84,668.96,1073.16,668.96,1080z"/>
	<path d="M864.25,608.97c-0.87-6.58-1.67-11.12-2.05-15.69c-2.4-28.31-21.22-50.75-47.46-56.43c-23.19-5.03-44.54,3.42-55.92,22.12
		c-11.76,19.33-10.22,44.23,5.58,61.53c7.27,7.96,16.65,14.5,26.1,19.88c17.03,9.69,34.84,18.01,52.32,26.9
		c15.26,7.75,28.8,17.78,38.86,31.71c24.35,33.73,16.08,81.77-19.58,104.32c-40.65,25.69-83.6,27.06-125.53,3.18
		c-37.98-21.63-39.17-67.46-3.49-92.21c2.58-1.79,6.41-1.76,9.66-2.57c0.35,3.07,1.11,6.17,0.99,9.22
		c-0.6,14.62-3.54,29.49-1.74,43.78c3.06,24.29,17.47,37.95,41.7,40.78c11.92,1.39,24.8,0.84,36.37-2.19
		c37.49-9.8,52.25-53.7,27.69-84.27c-9.27-11.53-22.84-20.15-35.67-28.15c-16.6-10.36-34.68-18.31-51.58-28.22
		c-8.1-4.75-15.53-11.03-22.3-17.61c-37.32-36.28-22.47-100.16,27.24-118c31.99-11.48,63.96-11.85,93.98,6.21
		C889.24,551.19,892.44,586.34,864.25,608.97z"/>
	<path d="M106.93,19.76c-21.02,0-40.93-0.59-60.79,0.23c-11.41,0.47-20.42,7.37-25.71,17.25C14.99,47.41,11.3,58.52,6.56,69.09
		C5.43,71.6,3.15,73.6,0,77.63C0,49.3,0,24.31,0,0c82.85,0,164.27,0,247.89,0c0,23.63,0,48.55,0,75.17
		c-1.76-1.69-4.72-3.32-5.78-5.78c-3.62-8.41-5.94-17.42-9.91-25.64c-7.87-16.31-20.52-25.15-39.54-24.37
		c-17.06,0.7-34.18,0.15-52.29,0.15c0,4.66,0,8.26,0,11.85c0,70.27,0.01,140.55-0.01,210.82c-0.01,26.11,5.42,32.86,30.56,38.82
		c3.91,0.93,7.43,3.56,11.13,5.4c-3.96,1.07-7.92,3.03-11.89,3.06c-30.69,0.27-61.37,0.16-92.06,0.17c-3.34,0-6.67,0-10.01,0
		c-0.68-0.83-1.36-1.66-2.04-2.49c2.03-1.99,3.76-5.15,6.15-5.78c33.36-8.75,34.73-10.4,34.73-45.14c0-68.43,0-136.86,0-205.3
		C106.93,27.6,106.93,24.26,106.93,19.76z"/>
	<path d="M380.45,1071.97c-34.84,0-69.68,0-104.53,0c-0.6-0.68-1.21-1.37-1.81-2.05c1.87-1.96,3.41-5.09,5.64-5.69
		c30.22-8.21,31.35-9.64,31.33-40.71c-0.05-63.51-0.02-127.01-0.03-190.52c0-0.92,0-1.84,0-2.76c-0.1-26.7-3.56-31.21-29.44-36.55
		c-5.19-1.07-8.19-2.33-5.82-8.69c34.73,0,69.59,0,107.93,0c-3.6,3.72-5.16,6.77-7.43,7.46c-31.7,9.66-31.77,9.63-31.77,42.42
		c0,64.43,0,128.85,0,193.28c0,25,4.87,30.99,29.34,36.06C380.56,1065.61,380.56,1065.61,380.45,1071.97z"/>
</g>
</svg>
