<?xml version="1.0" encoding="utf-8"?>
<!-- Generator: Adobe Illustrator 24.1.2, SVG Export Plug-In . SVG Version: 6.00 Build 0)  -->
<svg version="1.1" id="Layer_1" xmlns="http://www.w3.org/2000/svg" xmlns:xlink="http://www.w3.org/1999/xlink" x="0px" y="0px"
	 viewBox="0 0 1080 1080" style="enable-background:new 0 0 1080 1080;" xml:space="preserve">
<style type="text/css">
	.st0{fill:#17633E;}
	.st1{fill:#FFFFFF;}
</style>
<g>
	<path class="st0" d="M1064.66,492.73c-5.25-9.21-10.68-18.4-16.9-26.96c-24.6-33.89-39.02-70.57-32.48-109.2
		c0-14.19-0.17-24.28,0.03-34.37c0.73-38-15.19-66.49-48.45-85.12c-11.58-6.48-22.92-13.48-34.91-19.12
		c-32.23-15.18-54.95-39.09-69.18-71.64c-5.51-12.62-12.41-24.63-18.76-36.88c-16.55-31.9-43.49-46.8-78.78-47.71
		c-20.18-0.52-40.37-1.11-60.55-0.98c-26.25,0.17-50.24-6.62-72.49-20.53c-15.74-9.84-31.84-19.16-48.07-28.17
		c-28.73-15.95-57.86-16.1-86.66-0.25C480.73,21,464.24,30.69,448,40.74c-21.84,13.52-45.37,20.13-71.04,20.01
		c-19.65-0.09-39.31,0.58-58.96,0.84c-37.33,0.48-65.24,16.35-82.28,50.1c-7.65,15.16-15.59,30.17-23.04,45.42
		c-11.82,24.18-29.41,42.49-53.32,55.08c-17.37,9.14-34.57,18.69-51.3,28.94c-28.09,17.21-41.94,42.71-41.76,75.71
		c0.1,18.05-0.27,36.12,0.39,54.16c0.98,26.91-5.89,51.45-20.33,74.02c-8.87,13.86-17.86,27.64-26.59,41.59
		c-19.61,31.34-22.38,63.61-4.34,96.58c8.4,15.35,16.99,30.65,26.38,45.41c16.48,25.87,24.28,53.9,23.97,84.49
		c-0.21,20.16-0.26,40.37,0.83,60.5c1.51,27.68,13.37,50.2,37.65,64.64c16.85,10.03,34.06,19.64,51.78,28.01
		c27.55,13.02,47.7,32.84,61.55,59.86c8.94,17.45,18.5,34.66,28.97,51.23c14.14,22.4,34.77,35.84,61.54,37.49
		c20.64,1.27,41.4,1.62,62.07,0.99c32.02-0.98,60.77,7.24,86.63,26.3c11.09,8.17,22.92,15.38,34.64,22.67
		c33.06,20.58,66.22,20.15,99.08-0.41c13.95-8.73,27.62-17.91,41.27-27.11c20.86-14.07,43.73-21.34,68.95-21.16
		c19.12,0.14,38.25,0.16,57.38,0.19c35.96,0.06,63.57-14.73,81.55-46.24c7.89-13.83,15.78-27.68,22.83-41.94
		c13.96-28.21,34.78-48.88,63.39-62.37c17.73-8.36,34.97-17.92,51.76-28.05c20.75-12.52,33.45-31.36,35.55-55.62
		c1.92-22.15,2.84-44.5,2.26-66.71c-0.86-33.08,8.26-62.66,25.94-90.31c9.41-14.73,17.99-30.05,25.98-45.6
		C1082.36,550.23,1080.83,521.1,1064.66,492.73z"/>
	<g>
		<path class="st1" d="M108.16,515.53c0.31-5.81,1.78-11.49,4.42-17.03c2.63-5.53,6.33-10.69,11.11-15.46
			c4.78-4.77,11.08-8.61,18.89-11.51c7.82-2.9,16.53-4.35,26.16-4.34c17.06,0.01,32.92,4.95,47.56,14.79l-19.65,31.75
			c-12.4-8.04-21.67-12.06-27.79-12.07c-7.59-0.01-11.53,2.76-11.82,8.3c-0.16,2.91,1.5,5.33,4.97,7.27
			c3.47,1.94,7.67,3.75,12.62,5.41c4.94,1.66,9.9,3.78,14.87,6.35c4.97,2.57,9.09,6.59,12.37,12.06c3.28,5.47,4.7,12.22,4.27,20.25
			c-0.76,14.12-6.96,25.74-18.61,34.87c-11.65,9.13-26.08,13.68-43.29,13.67c-23.05-0.02-43.23-7.23-60.54-21.65l23.59-31.75
			c12.61,12.2,24.69,18.3,36.21,18.31c4.08,0,7.47-0.69,10.17-2.07c2.7-1.38,4.12-3.32,4.25-5.81c0.1-1.8-0.44-3.36-1.61-4.67
			c-1.17-1.32-2.43-2.25-3.79-2.81c-1.36-0.55-3.65-1.28-6.88-2.19c-3.23-0.9-5.64-1.63-7.21-2.19
			C117.23,547.52,107.15,534.36,108.16,515.53z"/>
		<path class="st1" d="M291.83,470.84l55.79,0.05l13.27,135.61l-48.35-0.04l-0.31-18.69l-37.85-0.03l-8.44,18.68l-53.82-0.05
			L291.83,470.84z M311.92,504.09h-0.44l-25.14,56.67l25.82,0.02L311.92,504.09z"/>
		<path class="st1" d="M415.75,470.95l49.01,0.04l-21.87,97.37l51.78,0.04l-8.62,38.2l-101.45-0.08L415.75,470.95z"/>
		<path class="st1" d="M579,471.09l55.79,0.05l13.27,135.61l-48.35-0.04l-0.31-18.69l-37.85-0.03l-8.44,18.68l-53.82-0.05
			L579,471.09z M599.09,504.33l-0.44,0L573.5,561l25.82,0.02L599.09,504.33z"/>
		<path class="st1" d="M706.33,471.2l64.54,0.06c11.08,0.01,20.66,1.58,28.74,4.7c8.07,3.12,14.21,6.87,18.43,11.23
			c4.21,4.36,7.47,9.59,9.77,15.69c2.3,6.09,3.68,11.46,4.17,16.1c0.48,4.64,0.59,9.38,0.33,14.22c-0.1,1.94-0.29,3.94-0.54,6.02
			c-0.26,2.08-1.07,5.75-2.45,11c-1.38,5.26-3.17,10.14-5.38,14.64c-2.21,4.5-5.65,9.44-10.32,14.84c-4.67,5.4-10.02,10-16.06,13.8
			c-6.04,3.8-13.87,6.98-23.49,9.53c-9.62,2.55-20.33,3.82-32.15,3.81l-66.95-0.06L706.33,471.2z M780.92,532.53
			c0.25-4.7-0.3-8.58-1.67-11.63c-1.37-3.05-3.48-5.23-6.32-6.55c-2.85-1.32-5.53-2.19-8.06-2.6c-2.53-0.42-5.54-0.63-9.05-0.63
			l-9.19-0.01L734,566.95l11.38,0.01C767.84,566.98,779.69,555.51,780.92,532.53z"/>
		<path class="st1" d="M845.33,471.33l52.51,0.05l9.8,41.54l28.27-41.51l59.73,0.05l-69.81,77.6l-12.96,57.92l-50.1-0.04l14.4-60.21
			L845.33,471.33z"/>
	</g>
</g>
</svg>
