<svg width="175" height="28" viewBox="0 0 175 28" fill="none" xmlns="http://www.w3.org/2000/svg">
<path d="M4.69384 9.27639C4.75333 8.16146 5.03542 7.07147 5.54203 6.00835C6.04673 4.94715 6.75675 3.95696 7.67403 3.0416C8.5913 2.12625 9.80026 1.38935 11.299 0.832849C12.7996 0.276343 14.4711 -0.00190913 16.3191 9.85791e-06C19.5928 0.00192884 22.6364 0.949909 25.4458 2.83819L21.6749 8.93097C19.2954 7.3881 17.5165 6.61667 16.3421 6.61475C14.8856 6.61283 14.1295 7.14439 14.0738 8.20751C14.0431 8.76593 14.3617 9.23033 15.0276 9.60261C15.6935 9.97489 16.4994 10.3222 17.4493 10.6408C18.3973 10.9593 19.3491 11.3662 20.3029 11.8593C21.2566 12.3525 22.0472 13.124 22.6767 14.1736C23.3061 15.2233 23.5786 16.5186 23.4961 18.0596C23.3502 20.7692 22.1605 22.9991 19.9248 24.7511C17.6892 26.5031 14.9201 27.3763 11.6175 27.3743C7.19428 27.3705 3.32176 25.9869 0 23.2197L4.52689 17.127C6.94673 19.4681 9.26486 20.6387 11.4755 20.6406C12.2585 20.6406 12.909 20.5082 13.4271 20.2434C13.9453 19.9786 14.2178 19.6063 14.2427 19.1285C14.2619 18.783 14.1583 18.4837 13.9338 18.2323C13.7092 17.979 13.4674 17.8005 13.2065 17.6931C12.9455 17.5875 12.506 17.4474 11.8862 17.2728C11.2664 17.1001 10.8039 16.96 10.5026 16.8525C6.43436 15.4152 4.50002 12.8898 4.69384 9.27639Z" fill="white"/>
<path d="M39.9399 0.70047L50.6459 0.710068L53.1924 26.7334L43.9141 26.7258L43.8546 23.1392L36.5913 23.1334L34.9716 26.7181L24.6436 26.7085L39.9399 0.70047ZM43.7951 7.0811H43.7107L38.8864 17.956L43.8412 17.9598L43.7951 7.0811Z" fill="white"/>
<path d="M63.7199 0.721558L73.1249 0.729229L68.928 19.4144L78.8646 19.4221L77.2104 26.7526L57.7423 26.7373L63.7199 0.721558Z" fill="white"/>
<path d="M95.0474 0.748444L105.753 0.758042L108.3 26.7814L99.0216 26.7737L98.9621 23.1872L91.6987 23.1814L90.0791 26.7661L79.7511 26.7565L95.0474 0.748444ZM98.9026 7.12715H98.8182L93.9919 18.002L98.9467 18.0059L98.9026 7.12715Z" fill="white"/>
<path d="M119.482 0.769501L131.867 0.781014C133.993 0.782933 135.832 1.08421 137.382 1.68293C138.931 2.28166 140.109 3.00128 140.919 3.83796C141.727 4.67464 142.352 5.67827 142.794 6.84885C143.235 8.01751 143.5 9.048 143.594 9.93841C143.686 10.8288 143.707 11.7384 143.657 12.6672C143.638 13.0395 143.602 13.4233 143.554 13.8224C143.504 14.2216 143.348 14.9259 143.083 15.9333C142.819 16.9427 142.475 17.8792 142.051 18.7427C141.627 19.6063 140.967 20.5542 140.071 21.5905C139.174 22.6267 138.148 23.5095 136.989 24.2387C135.83 24.9679 134.327 25.5782 132.481 26.0675C130.635 26.5568 128.58 26.8005 126.311 26.7986L113.464 26.7871L119.482 0.769501ZM133.796 12.5386C133.843 11.6367 133.738 10.8922 133.475 10.3069C133.212 9.72157 132.807 9.30322 132.262 9.04992C131.715 8.79661 131.201 8.62966 130.716 8.55099C130.23 8.47039 129.652 8.43009 128.979 8.43009L127.215 8.42817L124.792 19.1438L126.975 19.1457C131.285 19.1495 133.559 16.9485 133.796 12.5386Z" fill="white"/>
<path d="M146.156 0.794464L156.232 0.804063L158.113 8.77553L163.538 0.809819L175 0.819412L161.604 15.7107L159.117 26.8255L149.502 26.8178L152.266 15.2636L146.156 0.794464Z" fill="white"/>
</svg>
