<?xml version="1.0" encoding="utf-8"?>
<!-- Generator: Adobe Illustrator 26.5.0, SVG Export Plug-In . SVG Version: 6.00 Build 0)  -->
<svg version="1.1" id="레이어_1" xmlns="http://www.w3.org/2000/svg" xmlns:xlink="http://www.w3.org/1999/xlink" x="0px"
	 y="0px" viewBox="0 0 75 50" style="enable-background:new 0 0 75 50;" xml:space="preserve">
<style type="text/css">
	.st0{fill-rule:evenodd;clip-rule:evenodd;fill:#E3011D;}
</style>
<g>
	<path class="st0" d="M52.7,1.5c2.7-1.4,4.1-1.2,4.1,0.2c0,1.8-0.2,4.2-0.4,5.9c-1,9.3-2.7,16.9-2.8,26.5c4.5-11.7,8.2-19.7,13-29.7
		c1.5-3.2,2.5-2.6,3.8-3.2c4.9-2.2,5.1-0.8,4.4,1.9c-2.4,9.9-8.4,41.2-9.3,46c-0.3,1.4-1.8,0.8-2.1,0.3c-1.8-2.4-3.7-2.5-3.5-4.1
		c1.1-8,5.1-28.2,6.1-32.9c-5.2,10.8-10.6,24.3-13.4,31.9c-0.6,1.6-1.7,1.5-2.3,0.3c-1-1.7-2.8-2.6-3-4.5c-1-6.3,1.1-18.2,1.4-25.8
		c-2.8,8.3-7.6,24.3-9.7,31.6c-0.9,3-3.7,2.5-3-0.4c3.2-12.2,10-33.7,13-41.5C49.4,2.2,51.2,2.3,52.7,1.5L52.7,1.5z"/>
	<path class="st0" d="M35.5,0c-0.9-0.2-3.6,1.3-5.3,1.5c-0.5,0.1-1,0.7-1.2,1.1c-2.6,6.1-5,11.9-7,17.2c-2.6,0.5-5.7,1.1-9.1,1.8
		c2.5-6.3,4.9-12.6,7.3-18.5c1.2-3-1.9-3.3-3.2-0.3C15.5,6.7,12.6,14,9.3,22.5c-2.4,0.6-5,1.3-7.6,2.1c-1.9,0.5-2,1-1.2,2.2
		c0.5,0.6,1.4,0.6,1.8,1c1.1,1.2,1.8,2.6,3.9,2.8C4.3,35.6,2.5,40.6,1,45.4c-1,3,1.9,3.7,3,0.5c1.8-5.1,3.7-10.4,5.7-15.6
		c1.6-0.3,5.5-1.2,9.2-2c-2.9,8-4.7,14.1-5.5,17.1c-0.1,0.6,0.1,0.8,0.2,1.1c0.9,1.4,1.9,1.5,3.2,3.3c0.3,0.5,1.5,0.7,1.9-0.5
		c2.7-8.2,5.4-15.8,7.9-22.7c1.1-0.3,3-0.7,4.2-2.5c2.1-3.1,2.7-2.5,3.2-3.5c0.6-1.2,0.2-2.3-2-2.1c0,0-0.8,0.1-2.4,0.2
		c2.5-6.4,4.7-11.8,6.2-16C36.2,1.3,36.3,0.2,35.5,0L35.5,0z"/>
	<path class="st0" d="M33,39.8c0.4-0.5,0.7-0.9,1-1.4c1.3-2,0-3.1-1.3-2c-0.2,0.2-0.4,0.4-0.6,0.6c-0.2-0.7-0.5-1.4-0.7-2.1
		c0.6-0.8,1.2-1.6,1.7-2.4c2.2-3.4-2.1-5.4-3.9-3.1c-1,1.2-0.7,2.3-0.5,3.3c0.1,0.3,0.2,0.7,0.4,1.3c-0.5,0.5-1.1,1.2-2,2.2
		c-2.1,2.5-1.5,5.6,0.7,6.3c1.3,0.4,2.6-0.2,3.7-1.2c0.1,0.1,0.1,0.3,0.2,0.4c0.6,1.5,2.4,1,1.7-0.8C33.3,40.7,33.2,40.2,33,39.8
		L33,39.8z M30,36.7c0.2,0.6,0.4,1.2,0.6,1.7c-0.2,0.2-0.5,0.4-0.7,0.6c-0.9,0.5-1.5,0-0.4-1.5C29.6,37.2,29.8,36.9,30,36.7L30,36.7
		z M30.7,32.4c-0.1-0.2-0.1-0.3-0.1-0.4c-0.6-2.3,2-1.7,0.7-0.2C31.1,32,30.9,32.2,30.7,32.4L30.7,32.4z"/>
</g>
</svg>
