<?xml version="1.0" encoding="utf-8"?>
<!-- Generator: Adobe Illustrator 26.5.0, SVG Export Plug-In . SVG Version: 6.00 Build 0)  -->
<svg version="1.1" id="레이어_1" xmlns="http://www.w3.org/2000/svg" xmlns:xlink="http://www.w3.org/1999/xlink" x="0px"
	 y="0px" viewBox="0 0 459.71 304.36" style="enable-background:new 0 0 459.71 304.36;" xml:space="preserve">
<style type="text/css">
	.st0{fill-rule:evenodd;clip-rule:evenodd;fill:#E3011D;}
</style>
<g>
	<path class="st0" d="M323.15,9.24c16.54-8.27,25.02-7,25.23,1.27c0.21,10.81-1.48,25.23-2.55,35.62
		c-6.36,56.4-16.54,102.42-17.38,160.52c27.35-70.82,50.04-119.59,79.51-180.02c9.33-19.29,15.48-15.69,23.11-19.29
		c29.9-13.36,30.96-5.09,26.93,11.45c-14.42,60.01-51.32,249.78-57.04,278.84c-1.7,8.48-11.02,5.09-13.15,1.7
		c-11.03-14.63-22.9-14.85-21.63-24.81c6.79-48.35,30.96-170.69,37.11-199.53c-32.02,65.31-65.1,147.37-82.06,193.59
		c-3.61,9.76-10.18,9.12-14.21,1.91c-5.94-10.39-16.97-15.48-18.66-27.35c-5.94-37.96,6.57-110.47,8.27-156.49
		c-17.17,50.04-46.44,147.58-59.16,191.47c-5.3,18.24-22.9,15.06-18.23-2.33c19.5-74,61.28-204.41,79.3-251.27
		C302.8,13.27,314.03,13.91,323.15,9.24L323.15,9.24z"/>
	<path class="st0" d="M217.55,0.12c-5.73-1.27-22.27,7.63-32.44,9.12c-3.18,0.85-6.15,4.03-7.21,6.57
		c-16.12,37.11-30.54,72.31-42.83,104.11c-16.12,2.97-34.78,6.58-55.56,11.03c15.05-38.17,30.11-76.12,44.74-112.38
		c7.21-18.23-11.87-19.93-19.3-1.69c-9.54,23.54-27.57,67.85-47.5,119.38c-14.63,3.61-30.53,7.63-46.65,12.51
		c-11.87,3.18-12.3,6.36-7.21,13.57c2.97,3.82,8.48,3.39,11.24,6.36c7,7.21,11.24,15.9,23.75,17.17
		c-11.45,29.69-22.48,60.01-32.23,89.06c-6.36,18.45,11.66,22.27,18.45,2.76c11.03-31.17,22.69-62.76,34.78-94.78
		c9.97-2.12,33.93-7.21,56.19-12.3c-17.6,48.77-29.05,85.45-33.72,103.48c-0.84,3.39,0.85,5.09,1.48,6.79
		c5.73,8.48,11.66,8.9,19.3,19.72c1.91,2.97,8.91,4.45,11.45-2.76c16.33-49.62,32.86-95.84,48.55-137.4
		c6.58-1.7,18.45-4.45,25.66-15.06c12.72-19.09,16.33-15.27,19.72-20.99c3.81-7.42,1.06-14-12.51-12.51c0,0-5.09,0.43-14.85,1.49
		c15.27-38.8,28.84-71.67,38.17-96.9C222.22,7.76,222.65,1.4,217.55,0.12L217.55,0.12z"/>
	<path class="st0" d="M202.64,241.09c2.21-2.8,4.21-5.69,6.01-8.36c8.04-11.89,0.21-18.87-8.06-11.88c-1.18,1.09-2.41,2.27-3.63,3.5
		c-1.34-4.2-2.77-8.68-4.04-12.74c3.79-4.64,7.48-9.41,10.63-14.3c13.29-20.61-12.72-32.44-23.96-19.08c-5.93,7-4.45,14-2.76,20.14
		c0.49,1.85,1.26,4.48,2.21,7.69c-3.18,3.33-6.97,7.42-11.96,13.3c-12.93,14.85-9.34,33.96,4.24,38.17
		c8.19,2.54,15.91-1.16,22.6-7.07c0.32,0.84,0.63,1.64,0.93,2.4c3.61,8.91,14.84,6.15,10.39-4.66
		C204.54,246.39,203.65,243.95,202.64,241.09L202.64,241.09z M184.23,222.4c1.1,3.46,2.28,7.1,3.46,10.58
		c-1.48,1.23-2.98,2.48-4.49,3.35c-5.26,3.04-9.12-0.21-2.33-9.33C181.98,225.43,183.12,223.91,184.23,222.4L184.23,222.4z
		 M188.48,196.44c-0.39-0.99-0.61-1.95-0.82-2.72c-3.8-14.21,12.48-10.41,4.24-1.06C190.73,193.98,189.67,195.29,188.48,196.44
		L188.48,196.44z"/>
</g>
</svg>
