<?xml version="1.0" standalone="no"?>
<!DOCTYPE svg PUBLIC "-//W3C//DTD SVG 20010904//EN"
 "http://www.w3.org/TR/2001/REC-SVG-20010904/DTD/svg10.dtd">
<svg version="1.0" xmlns="http://www.w3.org/2000/svg"
 width="512.000000pt" height="512.000000pt" viewBox="0 0 512.000000 512.000000"
 preserveAspectRatio="xMidYMid meet">
<metadata>
Created by potrace 1.14, written by Peter Selinger 2001-2017
</metadata>
<g transform="translate(0.000000,512.000000) scale(0.100000,-0.100000)"
fill="#000000" stroke="none">
<path d="M2280 4071 c-63 -22 -134 -44 -157 -51 -24 -6 -54 -21 -67 -35 -28
-28 -246 -538 -415 -971 -41 -105 -55 -130 -71 -131 -11 -1 -55 -9 -98 -18
-108 -22 -123 -25 -157 -30 -16 -3 -37 -8 -45 -10 -8 -2 -27 -6 -42 -9 -15 -3
-64 -12 -109 -21 -44 -9 -83 -15 -85 -12 -3 3 224 592 256 662 30 65 201 504
205 525 8 43 -13 88 -45 95 -34 7 -87 -13 -117 -47 -33 -36 -65 -113 -511
-1243 -9 -22 -18 -43 -22 -47 -3 -4 -67 -23 -142 -43 -352 -91 -428 -119 -436
-159 -6 -31 44 -93 85 -106 26 -9 64 -39 118 -95 65 -66 90 -86 132 -99 l52
-17 -14 -32 c-50 -113 -305 -824 -325 -902 -9 -38 -4 -73 15 -102 12 -17 25
-23 54 -23 34 0 45 6 79 45 22 25 42 55 45 68 3 12 35 103 71 202 37 99 68
185 70 190 2 6 6 17 9 25 3 8 49 134 103 280 53 146 101 270 106 277 5 6 28
15 51 19 23 4 44 8 47 9 6 1 106 23 135 30 62 13 256 56 290 64 22 6 41 8 43
7 1 -2 -31 -100 -71 -217 -118 -338 -224 -671 -258 -804 -6 -25 -8 -57 -4 -72
9 -38 232 -253 262 -253 32 0 57 31 77 97 66 209 416 1199 468 1323 13 30 23
37 74 52 80 23 144 66 194 130 22 29 55 72 73 94 18 23 53 56 78 74 88 60 95
156 13 176 -21 5 -178 -1 -217 -9 -7 -1 -11 5 -9 13 2 8 79 206 171 440 245
618 249 629 221 681 -15 28 -50 24 -180 -20z"/>
<path d="M4727 4079 c-241 -82 -266 -95 -307 -159 -69 -109 -351 -704 -542
-1145 -38 -88 -75 -173 -82 -190 -8 -16 -60 -145 -116 -285 -56 -140 -106
-262 -111 -270 -10 -18 1 260 16 400 3 25 7 72 10 105 3 33 7 76 10 95 19 150
67 500 70 520 3 14 7 50 11 80 3 30 8 57 9 60 2 3 6 35 10 70 3 36 8 72 10 80
2 8 9 60 15 115 6 55 12 114 14 130 19 147 26 324 13 351 -22 50 -93 47 -232
-11 -44 -18 -111 -45 -148 -60 -45 -18 -76 -38 -92 -59 -53 -71 -364 -1002
-628 -1881 -158 -525 -217 -748 -212 -800 9 -99 123 -99 170 1 9 20 53 157 96
306 81 276 257 855 328 1078 150 477 185 580 193 580 4 0 5 -19 3 -42 -2 -24
-6 -77 -9 -118 -15 -181 -17 -210 -26 -290 -11 -100 -17 -169 -25 -265 -3 -38
-8 -81 -10 -95 -2 -14 -6 -65 -10 -115 -3 -49 -8 -124 -11 -165 -7 -105 -7
-334 1 -406 12 -110 27 -141 127 -251 26 -29 59 -70 72 -92 14 -22 38 -43 55
-49 26 -9 33 -7 53 13 13 13 45 81 71 152 27 70 52 137 57 148 5 11 56 140
114 288 99 248 334 807 404 957 121 262 222 474 222 468 0 -8 -12 -69 -45
-228 -14 -63 -27 -131 -30 -150 -3 -19 -8 -42 -10 -50 -2 -8 -7 -28 -9 -45 -3
-16 -19 -100 -36 -185 -32 -165 -76 -397 -84 -442 -3 -15 -12 -63 -20 -105 -9
-43 -17 -89 -20 -103 -4 -23 -14 -78 -22 -125 -5 -23 -62 -357 -68 -395 -6
-36 -26 -161 -30 -190 -5 -39 18 -73 81 -120 32 -24 83 -70 113 -102 42 -44
64 -60 92 -64 57 -10 58 -8 123 321 3 17 12 64 20 105 18 96 17 90 76 385 28
138 52 261 55 275 3 14 18 95 35 180 17 85 33 164 35 175 6 30 125 608 129
626 2 9 6 32 9 50 4 26 77 371 101 479 2 8 22 97 44 197 45 202 48 229 26 260
-22 32 -66 33 -158 2z"/>
<path d="M2100 2334 c-19 -8 -48 -33 -65 -57 -26 -37 -29 -49 -28 -107 1 -36
8 -85 17 -109 18 -50 18 -51 -79 -156 -65 -71 -109 -163 -108 -229 1 -105 68
-192 153 -196 70 -4 87 1 144 35 66 40 66 40 66 22 0 -22 39 -57 63 -57 53 1
66 46 36 123 l-19 47 35 49 c46 63 64 110 58 144 -10 53 -65 58 -117 10 -15
-14 -30 -22 -34 -18 -4 4 -14 32 -23 63 l-16 57 32 40 c72 90 108 157 109 205
1 60 -18 96 -70 126 -47 28 -101 30 -154 8z m89 -121 c11 -20 -5 -58 -38 -87
-21 -19 -21 -19 -22 0 0 10 -2 29 -5 42 -9 50 42 85 65 45z m-78 -428 c15 -59
16 -56 -23 -79 -45 -26 -73 -17 -63 22 7 31 53 102 66 102 5 0 14 -20 20 -45z"/>
</g>
</svg>
